<?xml version="1.0" standalone="no"?>
<!DOCTYPE svg PUBLIC "-//W3C//DTD SVG 20010904//EN"
 "http://www.w3.org/TR/2001/REC-SVG-20010904/DTD/svg10.dtd">
<svg version="1.0" xmlns="http://www.w3.org/2000/svg"
 width="558.000000pt" height="558.000000pt" viewBox="0 0 558.000000 558.000000"
 preserveAspectRatio="xMidYMid meet">
<metadata>
Created by potrace 1.11, written by Peter Selinger 2001-2013
</metadata>
<g transform="translate(0.000000,558.000000) scale(0.100000,-0.100000)"
fill="#000000" stroke="none">
<path d="M2615 4288 c-261 -41 -477 -136 -655 -287 -250 -212 -397 -471 -454
-799 -14 -77 -14 -331 -1 -402 63 -342 241 -634 508 -832 241 -178 492 -258
797 -253 348 5 643 131 890 377 178 178 320 445 356 668 2 14 7 36 10 50 13
53 12 288 -2 384 -64 452 -378 847 -808 1015 -56 22 -114 42 -129 45 -15 3
-39 9 -54 12 -16 3 -48 10 -73 16 -55 13 -316 17 -385 6z m356 -234 c335 -64
607 -266 765 -569 79 -150 115 -314 110 -500 -2 -71 -6 -143 -10 -160 -31
-144 -57 -221 -112 -323 -100 -186 -273 -355 -462 -451 -44 -23 -168 -69 -205
-77 -165 -36 -316 -42 -452 -18 -756 132 -1130 995 -708 1636 158 240 418 411
703 462 99 18 279 18 371 0z"/>
<path d="M3077 3516 c-76 -78 -147 -156 -158 -175 -26 -42 -31 -114 -13 -166
13 -40 13 -40 -24 -78 l-37 -37 -295 294 c-187 187 -297 290 -302 282 -4 -6
-10 -43 -13 -81 -4 -38 -9 -78 -11 -90 -12 -55 -12 -246 0 -305 22 -108 40
-136 179 -277 l131 -133 -142 -143 c-87 -88 -142 -151 -142 -163 0 -30 23 -56
52 -59 22 -3 57 27 213 181 103 101 191 184 195 184 4 0 77 -70 162 -155 179
-177 212 -197 288 -171 87 30 131 119 100 202 -6 14 -81 98 -168 186 -86 87
-158 161 -160 163 -2 2 13 20 33 40 33 35 37 36 65 25 45 -19 120 -16 170 7
30 14 91 67 185 162 l139 140 -29 31 -29 31 -132 -132 -131 -131 -32 32 -32
32 113 113 c165 164 153 146 118 180 l-29 28 -127 -127 c-69 -69 -131 -126
-136 -126 -10 0 -58 46 -58 55 0 2 56 60 125 128 69 68 125 128 125 134 0 5
-12 20 -27 34 l-28 25 -138 -140z m-387 -611 l-74 -74 -123 125 c-69 68 -131
140 -139 159 -13 32 -29 136 -27 178 0 9 1 40 2 68 l1 51 217 -217 216 -216
-73 -74z m463 -342 c-7 -20 -22 -33 -39 -33 -11 0 -267 248 -303 294 -13 15
-12 20 14 42 l28 24 153 -155 c118 -118 152 -158 147 -172z"/>
</g>
</svg>
