<?xml version="1.0" standalone="no"?>
<!DOCTYPE svg PUBLIC "-//W3C//DTD SVG 20010904//EN"
 "http://www.w3.org/TR/2001/REC-SVG-20010904/DTD/svg10.dtd">
<svg version="1.0" xmlns="http://www.w3.org/2000/svg"
 width="700.000000pt" height="700.000000pt" viewBox="0 0 700.000000 700.000000"
 preserveAspectRatio="xMidYMid meet">
<metadata>
Created by potrace 1.11, written by Peter Selinger 2001-2013
</metadata>
<g transform="translate(0.000000,700.000000) scale(0.100000,-0.100000)"
fill="#000000" stroke="none">
<path d="M3298 6995 c-1 -1 -41 -5 -88 -9 -178 -12 -388 -47 -581 -96 -650
-166 -1241 -521 -1708 -1026 -94 -103 -101 -111 -183 -216 -414 -531 -668
-1181 -726 -1858 -9 -110 -8 -503 1 -600 12 -109 27 -226 41 -295 2 -11 6 -36
10 -55 49 -272 156 -595 283 -857 415 -858 1166 -1517 2058 -1806 93 -30 163
-51 210 -63 48 -12 154 -37 170 -40 101 -20 186 -35 238 -40 34 -3 65 -8 68
-9 15 -10 227 -20 409 -20 187 0 339 7 430 21 144 21 295 48 345 61 33 8 67
16 75 18 109 22 388 117 550 188 459 199 905 524 1223 892 33 39 63 72 67 75
18 14 182 238 246 336 310 477 503 1040 552 1609 14 161 7 540 -12 695 -2 19
-7 58 -10 86 -4 28 -8 59 -10 70 -2 10 -11 60 -21 109 -142 761 -554 1471
-1151 1984 -136 117 -273 222 -335 257 -10 6 -27 17 -36 25 -10 8 -29 20 -43
28 -14 8 -52 31 -85 51 -327 198 -798 375 -1160 434 -33 5 -224 32 -295 42
-47 6 -526 15 -532 9z m392 -619 c58 -4 116 -8 130 -10 14 -3 48 -7 75 -10 28
-4 61 -8 75 -11 14 -3 36 -7 50 -9 430 -77 863 -267 1217 -537 43 -32 92 -69
108 -81 61 -46 334 -326 407 -418 224 -283 388 -590 498 -935 29 -91 73 -264
83 -325 3 -14 8 -44 12 -68 9 -58 13 -86 20 -167 3 -38 8 -89 11 -113 7 -52 7
-354 0 -402 -3 -19 -8 -64 -11 -100 -11 -117 -54 -354 -80 -440 -53 -173 -68
-217 -101 -301 -292 -744 -894 -1346 -1629 -1632 -117 -45 -316 -108 -385
-122 -8 -2 -49 -10 -90 -19 -104 -21 -193 -35 -275 -42 -38 -3 -81 -7 -95 -10
-31 -5 -357 -5 -425 1 -109 9 -254 29 -365 50 -124 24 -327 85 -475 142 -439
171 -855 470 -1155 833 -106 128 -105 127 -187 250 -199 298 -360 676 -423
995 -5 28 -11 59 -14 70 -14 68 -23 137 -31 235 -4 41 -9 86 -11 100 -5 33 -5
376 0 415 3 17 7 57 11 90 9 89 15 137 20 165 3 14 7 36 10 50 96 507 313 964
642 1352 163 192 457 447 652 564 35 22 78 47 95 58 46 28 223 118 281 143
238 103 460 169 695 207 144 23 165 25 305 32 72 4 131 7 132 8 3 2 92 -1 223
-8z"/>
<path d="M4295 4887 c-203 -205 -386 -397 -406 -427 -108 -164 -127 -387 -46
-563 l24 -52 -99 -97 c-54 -54 -101 -98 -106 -98 -4 0 -367 360 -807 800 -439
439 -801 797 -804 794 -6 -5 -7 -16 -17 -99 -3 -33 -8 -69 -10 -80 -4 -18 -11
-77 -19 -150 -2 -16 -6 -46 -9 -65 -3 -19 -8 -60 -11 -90 -3 -30 -7 -66 -9
-80 -27 -164 -27 -582 -2 -730 3 -14 7 -41 10 -60 7 -45 38 -152 62 -210 51
-127 91 -175 441 -527 l343 -343 -370 -371 c-204 -203 -377 -384 -386 -400
-34 -66 -14 -146 48 -192 34 -25 116 -34 151 -16 14 8 243 230 509 494 266
264 491 486 501 494 16 12 58 -27 430 -399 382 -383 471 -464 537 -485 45 -16
54 -17 130 -22 166 -11 317 83 393 244 52 113 46 247 -18 374 -10 19 -210 228
-446 464 l-429 431 103 101 102 102 40 -20 c117 -59 295 -72 425 -30 128 40
169 74 571 476 l380 379 -81 81 -80 80 -355 -355 -355 -355 -86 86 -86 87 351
351 c193 193 351 354 351 358 0 4 -35 42 -77 85 l-77 77 -352 -352 c-194 -194
-356 -351 -359 -350 -4 0 -44 37 -89 82 l-83 80 356 356 355 356 -79 79 c-44
44 -82 80 -85 79 -3 0 -171 -168 -375 -372z m-1442 -872 c303 -304 560 -562
570 -573 19 -20 16 -23 -179 -218 l-197 -197 -333 334 c-301 303 -335 341
-366 405 -19 39 -38 86 -42 105 -5 19 -12 52 -17 74 -18 81 -24 164 -23 335 1
264 4 312 21 299 7 -6 262 -260 566 -564z m1222 -1223 c207 -206 387 -388 400
-404 51 -60 12 -161 -65 -169 -55 -6 -66 4 -471 409 -225 224 -409 410 -409
413 0 3 32 38 72 77 56 56 74 69 85 61 7 -7 182 -180 388 -387z"/>
</g>
</svg>
