<?xml version="1.0" ?><!DOCTYPE svg  PUBLIC '-//W3C//DTD SVG 1.1//EN'  'http://www.w3.org/Graphics/SVG/1.1/DTD/svg11.dtd'><svg enable-background="new 0 0 48 48" height="48px" version="1.1" viewBox="0 0 48 48" width="48px" xml:space="preserve" xmlns="http://www.w3.org/2000/svg" xmlns:xlink="http://www.w3.org/1999/xlink"><g id="Expanded"><g><g><path d="M36,48H12c-0.522,0-0.957-0.402-0.997-0.923L9.07,21.946C5.095,21.484,2,18.097,2,14c0-4.419,3.678-8.151,8.032-8.151     c0.91,0,1.803,0.177,2.636,0.52C14.072,2.509,18.439,0,24,0c5.224,0,8.878,2.112,11.14,6.45c0.887-0.396,1.848-0.602,2.828-0.602     C42.322,5.849,46,9.581,46,14c0,4.097-3.095,7.484-7.07,7.946l-1.933,25.131C36.957,47.598,36.522,48,36,48z M12.926,46h22.147     l1.929-25.077C37.043,20.402,37.478,20,38,20c3.309,0,6-2.691,6-6c0-3.625-3.179-6.151-6.032-6.151     c-0.982,0-1.899,0.274-2.724,0.817c-0.245,0.161-0.551,0.207-0.832,0.123c-0.282-0.083-0.513-0.285-0.632-0.555     C31.898,3.981,28.791,2,24,2c-5.157,0-9.059,2.415-9.71,6.009c-0.06,0.33-0.281,0.608-0.59,0.74     c-0.308,0.134-0.663,0.102-0.943-0.083c-0.825-0.543-1.742-0.817-2.724-0.817C7.179,7.849,4,10.375,4,14c0,3.309,2.691,6,6,6     c0.522,0,0.957,0.402,0.997,0.923L12.926,46z"/></g><g><path d="M36.625,40h-25.25c-0.552,0-1-0.447-1-1s0.448-1,1-1h25.25c0.552,0,1,0.447,1,1S37.177,40,36.625,40z"/></g><g><path d="M19,40c-0.552,0-1-0.447-1-1v-8c0-0.553,0.448-1,1-1s1,0.447,1,1v8C20,39.553,19.552,40,19,40z"/></g><g><path d="M24,40c-0.552,0-1-0.447-1-1V29c0-0.553,0.448-1,1-1s1,0.447,1,1v10C25,39.553,24.552,40,24,40z"/></g><g><path d="M29,40c-0.552,0-1-0.447-1-1v-8c0-0.553,0.448-1,1-1s1,0.447,1,1v8C30,39.553,29.552,40,29,40z"/></g></g></g></svg>